{"title":"Gabbar is Back - CAM - x264 - AAC-={SPARROW}=-","uid":11873768,"size":630199006,"categoryP":"video","categoryS":"other","magnet":"?xt=urn:btih:a6b3d65d874be4bb8e04872ecbbbf70780dccf4b&amp;dn=Gabbar+is+Back+-+CAM+-+x264+-+AAC-%3D%7BSPARROW%7D%3D-&amp;tr=udp%3A%2F%2Ftracker.openbittorrent.com%3A80&amp;tr=udp%3A%2F%2Fopen.demonii.com%3A1337&amp;tr=udp%3A%2F%2Ftracker.coppersurfer.tk%3A6969&amp;tr=udp%3A%2F%2Fexodus.desync.com%3A6969","seeders":1,"leechers":1,"uploader":"juggs99","files":3,"time":1430491968,"description":"Gabbar is Back - CAM - x264 - AAC-={SPARROW}=-\n &lt;a href=&quot;\nhttp://imgsparrow.co/image/Jh&quot; rel=&quot;nofollow&quot; target=&quot;_NEW&quot;&gt;\nhttp://imgsparrow.co/image/Jh&lt;/a&gt;\n\nInfo : - \n\nSOURCE : Team Telly (Thanks)\nSample Within Torrent\nIts a CAM So don't compare with BluRay ;)\n\nFormat                      : MPEG-4\nFormat profile              : Base Media / Version 2\nCodec ID                    : mp42\nFile size                   : 587 MiB\nDuration                    : 1h 57mn\nOverall bit rate mode       : Variable\nOverall bit rate            : 700 Kbps\nWriting application         : HandBrake 0.10.0 2014112200\n\nVideo\nID                          : 1\nFormat                      : AVC\nFormat/Info                 : Advanced Video Codec\nFormat profile              : &lt;a class=&quot;__cf_email__&quot; href=&quot;/cdn-cgi/l/email-protection&quot; data-cfemail=&quot;034e626a6d434f372d33&quot;&gt;[email&amp;#160;protected]&lt;/a&gt;&lt;script cf-hash='f9e31' type=&quot;text/javascript&quot;&gt;\n/* &lt;![CDATA[ */!function(){try{var t=&quot;currentScript&quot;in document?document.currentScript:function(){for(var t=document.getElementsByTagName(&quot;script&quot;),e=t.length;e--;)if(t[e].getAttribute(&quot;cf-hash&quot;))return t[e]}();if(t&amp;&amp;t.previousSibling){var e,r,n,i,c=t.previousSibling,a=c.getAttribute(&quot;data-cfemail&quot;);if(a){for(e=&quot;&quot;,r=parseInt(a.substr(0,2),16),n=2;a.length-n;n+=2)i=parseInt(a.substr(n,2),16)^r,e+=String.fromCharCode(i);e=document.createTextNode(e),c.parentNode.replaceChild(e,c)}}}catch(u){}}();/* ]]&gt; */&lt;/script&gt;\nFormat settings, CABAC      : Yes\nFormat settings, ReFrames   : 4 frames\nCodec ID                    : avc1\nCodec ID/Info               : Advanced Video Coding\nDuration                    : 1h 57mn\nBit rate                    : 565 Kbps\nWidth                       : 352 pixels\nHeight                      : 192 pixels\nDisplay aspect ratio        : 2.000\nFrame rate mode             : Constant\nFrame rate                  : 25.000 fps\nColor space                 : YUV\nChroma subsampling          : 4:2:0\nBit depth                   : 8 bits\nScan type                   : Progressive\nBits/(Pixel*Frame)          : 0.334\nStream size                 : 474 MiB (81%)\nWriting library             : x264 core 142 r2479 dd79a61\nColor primaries             : BT.601 PAL\nTransfer characteristics    : BT.709\nMatrix coefficients         : BT.601\nColor range                 : Limited\n\nAudio\nID                          : 2\nFormat                      : AAC\nFormat/Info                 : Advanced Audio Codec\nFormat profile              : LC\nCodec ID                    : 40\nDuration                    : 1h 57mn\nBit rate mode               : Variable\nBit rate                    : 129 Kbps\nChannel(s)                  : 2 channels\nChannel positions           : Front: L R\nSampling rate               : 48.0 KHz\nCompression mode            : Lossy\nStream size                 : 108 MiB (18%)\n\nScreens : - \n &lt;a href=&quot;\nhttp://imgsparrow.co/image/Jj&quot; rel=&quot;nofollow&quot; target=&quot;_NEW&quot;&gt;\nhttp://imgsparrow.co/image/Jj&lt;/a&gt; &lt;a href=&quot;\nhttp://imgsparrow.co/image/Jr&quot; rel=&quot;nofollow&quot; target=&quot;_NEW&quot;&gt;\nhttp://imgsparrow.co/image/Jr&lt;/a&gt; &lt;a href=&quot;\nhttp://imgsparrow.co/image/JD&quot; rel=&quot;nofollow&quot; target=&quot;_NEW&quot;&gt;\nhttp://imgsparrow.co/image/JD&lt;/a&gt; &lt;a href=&quot;\nhttp://imgsparrow.co/image/JG&quot; rel=&quot;nofollow&quot; target=&quot;_NEW&quot;&gt;\nhttp://imgsparrow.co/image/JG&lt;/a&gt; &lt;a href=&quot;\nhttp://imgsparrow.co/image/Je&quot; rel=&quot;nofollow&quot; target=&quot;_NEW&quot;&gt;\nhttp://imgsparrow.co/image/Je&lt;/a&gt; &lt;a href=&quot;\nhttp://imgsparrow.co/image/Jg&quot; rel=&quot;nofollow&quot; target=&quot;_NEW&quot;&gt;\nhttp://imgsparrow.co/image/Jg&lt;/a&gt; &lt;a href=&quot;\nhttp://imgsparrow.co/image/Jq&quot; rel=&quot;nofollow&quot; target=&quot;_NEW&quot;&gt;\nhttp://imgsparrow.co/image/Jq&lt;/a&gt; &lt;a href=&quot;\nhttp://imgsparrow.co/image/Jz&quot; rel=&quot;nofollow&quot; target=&quot;_NEW&quot;&gt;\nhttp://imgsparrow.co/image/Jz&lt;/a&gt;\n &lt;a href=&quot;\nhttp://imgsparrow.co/image/N2&quot; rel=&quot;nofollow&quot; target=&quot;_NEW&quot;&gt;\nhttp://imgsparrow.co/image/N2&lt;/a&gt;","torrent":{"xt":"urn:btih:a6b3d65d874be4bb8e04872ecbbbf70780dccf4b","amp;dn":"Gabbar+is+Back+-+CAM+-+x264+-+AAC-%3D%7BSPARROW%7D%3D-","amp;tr":["udp%3A%2F%2Ftracker.openbittorrent.com%3A80","udp%3A%2F%2Fopen.demonii.com%3A1337","udp%3A%2F%2Ftracker.coppersurfer.tk%3A6969","udp%3A%2F%2Fexodus.desync.com%3A6969"],"infoHash":"a6b3d65d874be4bb8e04872ecbbbf70780dccf4b","infoHashBuffer":{"type":"Buffer","data":[166,179,214,93,135,75,228,187,142,4,135,46,203,187,247,7,128,220,207,75]},"announce":[],"urlList":[]}}